# xmcd CD database file
#
# Track frame offsets:
#	150
#	26648
#	36412
#	49167
#	65474
#	77665
#	92502
#	109016
#	121333
#	140278
#	155430
#	168135
#	185227
#	204564
#	223823
#	238047
#	249635
#	259512
#	286221
#	297950
#
# Disc length: 4138 seconds
#
# Revision: 0
# Processed by: cddbd v1.5.2PL0 Copyright (c) Steve Scherf et al.
# Submitted via: CDex 1.51
#
DISCID=24102814
DTITLE=Various Artist - The Essential Jazz Collection CD3
DYEAR=2006
DGENRE=Jazz
TTITLE0=Afternoon of an Elf - Erroll Garner
TTITLE1=Chicago - Bobby Troup
TTITLE2=Dardanella - Art Tatum
TTITLE3=One for my Baby - Billy Eckstine
TTITLE4=Ice Cream Konitz - Lee Konitz
TTITLE5=Ace in the Hole - Bunk Jonson and the Yerba Buena Jazz Band
TTITLE6=Concorde - Modern Jazz Quartet
TTITLE7=Let there be Love - Pearl Bailey
TTITLE8=Jive at Six - Ben Webster
TTITLE9=Cleopatra - Jutta Hipp Quintet
TTITLE10=Isle of Capri - Ken Colyer's Jazzmen
TTITLE11=Blues for Benny - Frank Foster Quintet
TTITLE12=The Preacher - Horace Silver Quintet
TTITLE13=Lotus Flower - Kenny Dorham
TTITLE14=What Can I Say After I Say Sorry - King Pleasure
TTITLE15=Strinin' the Jug - Gene Ammons Battles Sonny Stitt
TTITLE16=Papa Tree Top Blues - Little Miss Cornshucks and Benny Carter Orchestra
TTITLE17=Extended Blues - Oscar Peterson and Count Basie
TTITLE18=The Big Noise from Winnetka - Bob Crosby and his Bob Cats
TTITLE19=High Society - Chris Barber
EXTD=YEAR: 2006
EXTT0=
EXTT1=
EXTT2=
EXTT3=
EXTT4=
EXTT5=
EXTT6=
EXTT7=
EXTT8=
EXTT9=
EXTT10=
EXTT11=
EXTT12=
EXTT13=
EXTT14=
EXTT15=
EXTT16=
EXTT17=
EXTT18=
EXTT19=
PLAYORDER=
